<svg class="svg-icon" viewBox="0 0 16.6 16.6"><title>Directions</title><g><g><path class="st0Direction" d="M0,7.7c0.7,0,1.4,0,2.2,0c0.1,0,0.1,0,0.1-0.1c0.1-0.7,0.3-1.5,0.6-2.1c0.7-1.3,1.6-2.2,2.9-2.8 c0.5-0.2,1.1-0.4,1.6-0.5c0.1,0,0.2,0,0.3,0c0,0,0,0,0,0c0,0,0-0.1,0-0.1c0-0.7,0-1.4,0-2C7.7,0,7.7,0,7.8,0c0.3,0,0.7,0,1,0 c0.1,0,0.1,0,0.1,0.1c0,0.7,0,1.4,0,2.1c0,0,0,0.1,0.1,0.1c0.4,0,0.8,0.1,1.2,0.2c0.8,0.2,1.4,0.6,2.1,1.1 c0.6,0.5,1.2,1.1,1.5,1.9c0,0,0,0,0,0c-0.1,0-0.2-0.1-0.2-0.1c-0.5-0.2-1-0.4-1.5-0.6c0,0,0,0-0.1,0c-0.5-0.5-1.2-1-1.9-1.2 C9.5,3.5,9.1,3.4,8.7,3.3C8,3.3,7.2,3.4,6.5,3.6c-0.6,0.2-1.1,0.6-1.6,1C4.2,5.3,3.7,6.2,3.4,7.2c-0.1,0.5-0.2,1-0.1,1.5 c0.1,1,0.5,1.9,1.1,2.7C5,12.1,5.8,12.7,6.6,13c0.7,0.2,1.3,0.3,2,0.3c0.8-0.1,1.5-0.3,2.2-0.7c0.4-0.2,0.7-0.5,1-0.8 c0,0,0,0,0.1,0c0.6-0.2,1.2-0.4,1.8-0.6c0,0,0,0,0,0c0,0.1-0.1,0.1-0.1,0.2c-0.5,0.8-1.1,1.5-1.9,2c-0.6,0.4-1.3,0.7-2,0.9 c-0.3,0.1-0.5,0.1-0.8,0.1c0,0,0,0,0,0.1c0,0.7,0,1.4,0,2.1c0,0.1,0,0.1-0.1,0.1c-0.3,0-0.7,0-1,0c0,0-0.1,0-0.1-0.1 c0-0.7,0-1.4,0-2.1c0,0,0-0.1-0.1-0.1c-0.4,0-0.8-0.1-1.2-0.2C5.7,13.8,5,13.5,4.4,13c-1-0.8-1.7-1.9-2-3.1 C2.3,9.5,2.3,9.2,2.2,8.9c0,0,0,0-0.1,0c-0.7,0-1.5,0-2.2,0C0,8.5,0,8.1,0,7.7z"></path><path class="st0Direction" d="M8.8,11c0.1-0.2,0.3-0.5,0.4-0.7c0.4-0.7,0.8-1.3,1.3-2c0,0,0-0.1,0-0.1C10,7.4,9.4,6.5,8.9,5.6 c0,0,0,0,0-0.1c2.6,0.9,5.1,1.8,7.7,2.8C14,9.2,11.4,10.1,8.8,11C8.8,11,8.8,11,8.8,11z"></path></g></g></svg>