<svg class="svg-icon" viewBox="0 0 16.6 16.6"><g><g><path class="st0Info" d="M9.5,9.8c0,0.4,0,0.9,0,1.3c-0.1,0.5,0.1,0.7,0.6,0.6c0.6-0.1,0.6,0.2,0.4,0.6c-0.3,0.5-1.4,0.8-2.4,0.5 c-0.6-0.2-0.9-0.6-0.8-1.2c0-0.9,0-1.8,0-2.7c0-0.4,0-0.7-0.6-0.6c-0.2,0-0.5,0.1-0.5-0.1C6.1,8,6.2,7.8,6.3,7.6 c0.1-0.2,0.3-0.3,0.6-0.4c0.6-0.1,1.2-0.1,1.8,0c0.5,0.1,0.8,0.5,0.8,1C9.5,8.7,9.5,9.3,9.5,9.8L9.5,9.8z"></path><path class="st0Info" d="M9.5,4.9C9.5,5.5,9,6,8.4,6C7.7,6,7.2,5.5,7.2,4.9c0-0.6,0.5-1.1,1.2-1.1C9,3.8,9.5,4.3,9.5,4.9z"></path><path class="st0Info" d="M8.3,16.6C3.7,16.6,0,12.8,0,8.3S3.7,0,8.3,0s8.3,3.7,8.3,8.3S12.8,16.6,8.3,16.6z M8.3,1C4.3,1,1,4.3,1,8.3 s3.3,7.2,7.2,7.2s7.2-3.3,7.2-7.2S12.3,1,8.3,1z"></path></g></g></svg>