<svg class="svg-icon viewWeb"><title>Web</title><g><g><path class="st0Web" d="M8.2,0c4.6-0.1,8.3,3.6,8.4,8.1c0.1,4.6-3.6,8.4-8.1,8.5C3.8,16.7,0.1,13,0,8.4C-0.1,3.8,3.6,0.1,8.2,0z M9.9,15.8c0.9-0.2,1.7-0.5,2.4-1c0.7-0.5,1.3-1.1,1.9-1.8c0.1-0.1,0.1-0.2,0.2-0.3c-0.9,0-1.8,0-2.6,0c-0.1,0-0.1,0.1-0.1,0.1 c-0.3,0.7-0.6,1.3-1,1.9C10.4,15.2,10.1,15.5,9.9,15.8C9.9,15.8,9.9,15.8,9.9,15.8C9.9,15.9,9.9,15.8,9.9,15.8z M7,0.7 C6.4,0.8,5.9,0.9,5.4,1.1c-1.1,0.5-2,1.2-2.7,2.1C2.5,3.4,2.3,3.6,2.2,3.8c0.8,0,1.6,0,2.3,0c0.3,0,0.5-0.1,0.5-0.3 c0,0,0-0.1,0-0.1c0.4-0.8,1-1.5,1.6-2.2C6.7,1,6.9,0.9,7,0.7C7,0.7,7,0.7,7,0.7C7,0.7,7,0.7,7,0.7z M4.7,4.6c-1,0-2,0-3,0 c-0.1,0-0.1,0-0.1,0.1c-0.5,1-0.8,2-0.9,3.1c0,0.1,0,0.1,0.1,0.1c1.1,0,2.1,0,3.2,0c0.2,0,0.2,0,0.2-0.2c0-0.5,0.1-1,0.2-1.4 C4.4,5.7,4.5,5.1,4.7,4.6z M4.7,12C4.7,12,4.7,12,4.7,12c-0.3-1.1-0.5-2.1-0.6-3.2c0-0.1,0-0.1-0.1-0.1c-1.1,0-2.2,0-3.2,0 c-0.1,0-0.1,0-0.1,0.1c0.1,1.1,0.4,2.1,0.9,3c0,0.1,0.1,0.1,0.2,0.1c0.9,0,1.9,0,2.8,0C4.6,12,4.7,12,4.7,12z M12,12 C12,12,12.1,12,12,12c1,0,1.9,0,2.8,0c0.1,0,0.1,0,0.1-0.1c0.1-0.1,0.1-0.3,0.2-0.4c0.4-0.8,0.6-1.7,0.7-2.7c0-0.1,0-0.1-0.1-0.1 c-1,0-2.1,0-3.1,0c-0.1,0-0.1,0-0.1,0.1c0,0.7-0.1,1.4-0.3,2.1C12.2,11.3,12.1,11.6,12,12z M14.2,7.9c0.5,0,1,0,1.5,0 c0.1,0,0.1,0,0.1-0.1c-0.1-1.1-0.4-2.1-0.9-3.1c0-0.1-0.1-0.1-0.2-0.1c-0.9,0-1.8,0-2.7,0c-0.1,0-0.1,0-0.1,0.1 c0.3,1,0.5,2,0.5,3.1c0,0.1,0,0.1,0.1,0.1C13.2,7.9,13.7,7.9,14.2,7.9z M8.7,10.3c0,0.5,0,1,0,1.5c0,0.1,0,0.1,0.1,0.1 c0.8,0,1.6,0,2.4,0c0.1,0,0.1,0,0.1-0.1c0.3-1,0.5-2,0.6-3.1c0-0.1,0-0.1-0.1-0.1c-1,0-2,0-3,0c-0.1,0-0.1,0-0.1,0.1 C8.7,9.3,8.7,9.8,8.7,10.3z M8.7,6.2c0,0.5,0,1,0,1.5c0,0.1,0,0.1,0.1,0.1c1,0,2,0,3,0c0.1,0,0.1,0,0.1-0.1 c-0.1-1.1-0.2-2.1-0.6-3.1c0-0.1-0.1-0.1-0.2-0.1c-0.8,0-1.6,0-2.4,0c-0.1,0-0.1,0-0.1,0.1C8.7,5.2,8.7,5.7,8.7,6.2z M8,10.3 c0-0.5,0-1,0-1.5c0-0.1,0-0.1-0.1-0.1c-1,0-2,0-3,0c-0.1,0-0.1,0-0.1,0.1c0.1,1.1,0.2,2.1,0.6,3.1c0,0.1,0.1,0.1,0.1,0.1 c0.8,0,1.6,0,2.4,0C8,12,8,11.9,8,11.9C8,11.4,8,10.8,8,10.3z M8,6.2c0-0.5,0-1,0-1.5c0-0.1,0-0.1-0.1-0.1c-0.8,0-1.6,0-2.4,0 c-0.1,0-0.1,0-0.1,0.1c-0.3,1-0.5,2-0.6,3.1c0,0.1,0,0.1,0.1,0.1c1,0,2,0,3,0C8,7.9,8,7.8,8,7.7C8,7.2,8,6.7,8,6.2z M2.2,12.8 C3.4,14.5,5,15.5,7,15.9c0,0,0-0.1-0.1-0.1c-0.7-0.9-1.4-1.8-1.9-2.9c0-0.1-0.1-0.1-0.1-0.1C4,12.8,3.1,12.8,2.2,12.8z M9.7,0.7 C9.8,0.8,9.9,0.9,10,1c0.7,0.8,1.3,1.7,1.7,2.6c0,0.1,0.1,0.1,0.1,0.1c0.8,0,1.6,0,2.4,0c0,0,0.1,0,0.1,0c0,0,0,0,0,0 C14,3.1,13.6,2.6,13,2.1c-0.7-0.6-1.6-1-2.5-1.2C10.3,0.8,10,0.8,9.7,0.7z M8.7,15.9C8.7,15.9,8.7,15.9,8.7,15.9 c0.5-0.4,0.9-0.7,1.3-1.2c0.4-0.5,0.7-1.2,1-1.8c0-0.1,0-0.1-0.1-0.1c-0.7,0-1.4,0-2,0c-0.1,0-0.1,0-0.1,0.1c0,0.9,0,1.9,0,2.8 C8.7,15.8,8.7,15.8,8.7,15.9z M8,0.7C7,1.6,6.2,2.5,5.6,3.8c0.8,0,1.6,0,2.3,0C8,3.8,8,3.7,8,3.6c0-0.9,0-1.9,0-2.8 C8,0.8,8,0.7,8,0.7z M8,15.9C8,15.8,8,15.8,8,15.9c0-1,0-2,0-3c0-0.1,0-0.1-0.1-0.1c-0.6,0-1.3,0-1.9,0c-0.2,0-0.2,0-0.1,0.2 c0.4,0.8,0.8,1.5,1.4,2.2C7.5,15.5,7.7,15.7,8,15.9z M10.8,3.8c-0.5-1.2-1.2-2.2-2.1-3.1c0,1,0,2,0,3c0,0.1,0,0.1,0.1,0.1 C9.4,3.8,10.1,3.8,10.8,3.8z"></path><path class="st0Web" d="M9.9,15.8C9.9,15.8,9.9,15.9,9.9,15.8C9.9,15.8,9.9,15.8,9.9,15.8C9.9,15.8,9.9,15.8,9.9,15.8z"></path></g></g></svg>